<?xml version="1.0" standalone="no"?>
<!DOCTYPE svg PUBLIC "-//W3C//DTD SVG 20010904//EN"
 "http://www.w3.org/TR/2001/REC-SVG-20010904/DTD/svg10.dtd">
<svg version="1.0" xmlns="http://www.w3.org/2000/svg"
 width="512.000000pt" height="512.000000pt" viewBox="0 0 512.000000 512.000000"
 preserveAspectRatio="xMidYMid meet">
<metadata>
Created by potrace 1.11, written by Peter Selinger 2001-2013
</metadata>
<g transform="translate(0.000000,512.000000) scale(0.100000,-0.100000)"
fill="#000000" stroke="none">
<path d="M1116 5109 c-494 -65 -923 -429 -1060 -902 -53 -182 -51 -123 -51
-1647 0 -1524 -2 -1465 51 -1647 111 -382 432 -716 809 -842 212 -70 102 -66
1695 -66 1593 0 1483 -4 1695 66 377 126 698 460 809 842 53 182 51 123 51
1647 0 1524 2 1465 -51 1647 -111 382 -432 717 -809 842 -212 70 -87 65 -1655
67 -789 1 -1445 -2 -1484 -7z m3016 -374 c143 -30 309 -132 406 -248 293 -353
196 -896 -201 -1117 -126 -70 -212 -93 -357 -94 -152 -1 -202 10 -339 76 -88
42 -116 62 -186 131 -93 93 -151 184 -192 302 -24 72 -27 94 -28 220 0 120 3
151 23 215 66 208 195 361 387 456 50 24 119 51 155 58 86 19 248 19 332 1z
m-1827 -1410 c62 -16 225 -92 225 -104 0 -4 -13 -15 -30 -24 -127 -76 -269
-231 -344 -377 -78 -153 -109 -279 -109 -445 0 -135 13 -207 65 -355 149 -430
163 -488 155 -640 -5 -99 -40 -220 -63 -220 -24 0 -1440 521 -1464 539 -65 47
-81 143 -37 210 16 24 48 49 88 71 106 56 173 105 240 178 111 120 187 266
291 557 79 220 126 303 230 407 103 103 252 183 397 214 84 17 274 12 356 -11z
m950 -203 c160 -54 291 -146 383 -269 65 -86 100 -157 157 -317 153 -433 262
-591 500 -725 117 -66 145 -99 145 -173 0 -57 -19 -99 -58 -126 -47 -34 -1820
-675 -1866 -675 -79 0 -143 56 -153 133 -4 30 4 64 35 147 51 138 67 231 58
348 -12 156 -29 217 -170 622 -45 130 -60 224 -53 338 18 276 176 520 417 644
140 72 226 91 390 87 108 -3 137 -7 215 -34z m-1670 -1938 c176 -64 324 -120
328 -124 16 -14 -73 -91 -141 -123 -60 -29 -77 -32 -157 -32 -82 0 -97 3 -157
33 -121 59 -198 170 -214 307 -5 43 -4 55 7 55 8 0 158 -52 334 -116z m2292
-123 c-23 -215 -204 -369 -411 -347 -77 8 -167 51 -224 108 -35 34 -41 45 -30
52 16 9 647 243 662 245 5 1 6 -25 3 -58z"/>
<path d="M3890 4463 c-8 -3 -18 -11 -22 -17 -4 -6 -8 -126 -8 -267 0 -189 3
-259 13 -271 18 -24 277 -208 292 -208 18 0 117 138 113 158 -2 9 -47 48 -101
86 l-97 71 0 210 c0 115 -5 217 -10 225 -7 11 -31 15 -87 17 -43 1 -85 0 -93
-4z"/>
</g>
</svg>
